<?xml version="1.0" encoding="UTF-8"?>
<svg xmlns="http://www.w3.org/2000/svg" xmlns:xlink="http://www.w3.org/1999/xlink" width="50pt" height="50pt" viewBox="0 0 50 50" version="1.1">
<g id="surface1">
<path style=" stroke:none;fill-rule:nonzero;fill:rgb(0%,0%,0%);fill-opacity:1;" d="M 50 8.886719 L 0 8.886719 L 0 41.113281 L 50 41.113281 Z M 47.070312 38.183594 L 2.929688 38.183594 L 2.929688 11.816406 L 47.070312 11.816406 Z M 47.070312 38.183594 "/>
<path style=" stroke:none;fill-rule:nonzero;fill:rgb(0%,0%,0%);fill-opacity:1;" d="M 26.78125 25.289062 L 22.976562 17.675781 L 9.445312 17.675781 L 5.640625 25.289062 L 16.210938 35.859375 Z M 10.957031 26.464844 L 21.464844 26.464844 L 16.210938 31.71875 Z M 21.164062 20.605469 L 22.628906 23.535156 L 9.792969 23.535156 L 11.257812 20.605469 Z M 21.164062 20.605469 "/>
<path style=" stroke:none;fill-rule:nonzero;fill:rgb(0%,0%,0%);fill-opacity:1;" d="M 29.394531 17.675781 L 44.042969 17.675781 L 44.042969 20.605469 L 29.394531 20.605469 Z M 29.394531 17.675781 "/>
<path style=" stroke:none;fill-rule:nonzero;fill:rgb(0%,0%,0%);fill-opacity:1;" d="M 29.394531 23.535156 L 44.042969 23.535156 L 44.042969 26.464844 L 29.394531 26.464844 Z M 29.394531 23.535156 "/>
<path style=" stroke:none;fill-rule:nonzero;fill:rgb(0%,0%,0%);fill-opacity:1;" d="M 29.394531 29.394531 L 44.042969 29.394531 L 44.042969 32.324219 L 29.394531 32.324219 Z M 29.394531 29.394531 "/>
</g>
</svg>
