<?xml version="1.0" encoding="UTF-8"?>
<svg xmlns="http://www.w3.org/2000/svg" xmlns:xlink="http://www.w3.org/1999/xlink" width="75pt" height="75pt" viewBox="0 0 75 75" version="1.1">
<g id="surface1">
<path style=" stroke:none;fill-rule:nonzero;fill:rgb(0%,0%,0%);fill-opacity:1;" d="M 75 13.328125 L 0 13.328125 L 0 61.671875 L 75 61.671875 Z M 70.605469 57.273438 L 4.394531 57.273438 L 4.394531 17.726562 L 70.605469 17.726562 Z M 70.605469 57.273438 "/>
<path style=" stroke:none;fill-rule:nonzero;fill:rgb(0%,0%,0%);fill-opacity:1;" d="M 40.171875 37.933594 L 34.464844 26.515625 L 14.167969 26.515625 L 8.460938 37.933594 L 24.316406 53.789062 Z M 16.4375 39.695312 L 32.195312 39.695312 L 24.316406 47.578125 Z M 31.746094 30.90625 L 33.945312 35.304688 L 14.6875 35.304688 L 16.886719 30.90625 Z M 31.746094 30.90625 "/>
<path style=" stroke:none;fill-rule:nonzero;fill:rgb(0%,0%,0%);fill-opacity:1;" d="M 44.09375 26.515625 L 66.0625 26.515625 L 66.0625 30.90625 L 44.09375 30.90625 Z M 44.09375 26.515625 "/>
<path style=" stroke:none;fill-rule:nonzero;fill:rgb(0%,0%,0%);fill-opacity:1;" d="M 44.09375 35.304688 L 66.0625 35.304688 L 66.0625 39.695312 L 44.09375 39.695312 Z M 44.09375 35.304688 "/>
<path style=" stroke:none;fill-rule:nonzero;fill:rgb(0%,0%,0%);fill-opacity:1;" d="M 44.09375 44.09375 L 66.0625 44.09375 L 66.0625 48.484375 L 44.09375 48.484375 Z M 44.09375 44.09375 "/>
</g>
</svg>
