<?xml version="1.0" encoding="UTF-8"?>
<svg xmlns="http://www.w3.org/2000/svg" xmlns:xlink="http://www.w3.org/1999/xlink" width="25pt" height="25pt" viewBox="0 0 25 25" version="1.1">
<g id="surface1">
<path style=" stroke:none;fill-rule:nonzero;fill:rgb(0%,0%,0%);fill-opacity:1;" d="M 25 4.445312 L 0 4.445312 L 0 20.554688 L 25 20.554688 Z M 23.535156 19.09375 L 1.464844 19.09375 L 1.464844 5.90625 L 23.535156 5.90625 Z M 23.535156 19.09375 "/>
<path style=" stroke:none;fill-rule:nonzero;fill:rgb(0%,0%,0%);fill-opacity:1;" d="M 13.390625 12.644531 L 11.488281 8.835938 L 4.722656 8.835938 L 2.820312 12.644531 L 8.105469 17.929688 Z M 5.480469 13.234375 L 10.730469 13.234375 L 8.105469 15.859375 Z M 10.582031 10.304688 L 11.316406 11.765625 L 4.894531 11.765625 L 5.628906 10.304688 Z M 10.582031 10.304688 "/>
<path style=" stroke:none;fill-rule:nonzero;fill:rgb(0%,0%,0%);fill-opacity:1;" d="M 14.695312 8.835938 L 22.023438 8.835938 L 22.023438 10.304688 L 14.695312 10.304688 Z M 14.695312 8.835938 "/>
<path style=" stroke:none;fill-rule:nonzero;fill:rgb(0%,0%,0%);fill-opacity:1;" d="M 14.695312 11.765625 L 22.023438 11.765625 L 22.023438 13.234375 L 14.695312 13.234375 Z M 14.695312 11.765625 "/>
<path style=" stroke:none;fill-rule:nonzero;fill:rgb(0%,0%,0%);fill-opacity:1;" d="M 14.695312 14.695312 L 22.023438 14.695312 L 22.023438 16.164062 L 14.695312 16.164062 Z M 14.695312 14.695312 "/>
</g>
</svg>
